<mxfile host="app.diagrams.net" modified="2020-11-11T21:49:50.001Z" agent="5.0 (Macintosh; Intel Mac OS X 10_14_6) AppleWebKit/537.36 (KHTML, like Gecko) Chrome/83.0.4103.97 Safari/537.36" etag="IjjEQi9z17l2xMr6qLjg" version="13.9.3" type="github">
  <diagram id="glZ75xnFsWHVZkqDa8KV" name="Page-1">
    <mxGraphModel dx="786" dy="523" grid="1" gridSize="10" guides="1" tooltips="1" connect="1" arrows="1" fold="1" page="1" pageScale="1" pageWidth="827" pageHeight="1169" math="0" shadow="0">
      <root>
        <mxCell id="0" />
        <mxCell id="1" parent="0" />
        <mxCell id="3H0-s9RyXJ1IOqhGOWBs-15" value="" style="rounded=1;whiteSpace=wrap;html=1;align=right;fillColor=#CCE5FF;" vertex="1" parent="1">
          <mxGeometry x="160.09" y="20" width="479.91" height="170" as="geometry" />
        </mxCell>
        <mxCell id="3H0-s9RyXJ1IOqhGOWBs-1" value="Staging Area&lt;br&gt;Docker Volume" style="rounded=1;whiteSpace=wrap;html=1;fillColor=#f5f5f5;strokeColor=#666666;fontColor=#333333;strokeWidth=3;" vertex="1" parent="1">
          <mxGeometry x="330" y="30" width="120" height="60" as="geometry" />
        </mxCell>
        <mxCell id="3H0-s9RyXJ1IOqhGOWBs-4" value="Jupyter Container" style="rounded=1;whiteSpace=wrap;html=1;fillColor=#3399FF;strokeColor=#1A1A1A;strokeWidth=3;" vertex="1" parent="1">
          <mxGeometry x="190" y="120" width="120" height="60" as="geometry" />
        </mxCell>
        <mxCell id="3H0-s9RyXJ1IOqhGOWBs-5" value="Access" style="endArrow=classic;html=1;exitX=1;exitY=0.25;exitDx=0;exitDy=0;entryX=0.5;entryY=1;entryDx=0;entryDy=0;" edge="1" parent="1" source="3H0-s9RyXJ1IOqhGOWBs-4" target="3H0-s9RyXJ1IOqhGOWBs-1">
          <mxGeometry width="50" height="50" relative="1" as="geometry">
            <mxPoint x="380" y="300" as="sourcePoint" />
            <mxPoint x="300" y="90" as="targetPoint" />
          </mxGeometry>
        </mxCell>
        <mxCell id="3H0-s9RyXJ1IOqhGOWBs-6" value="" style="shape=image;verticalLabelPosition=bottom;labelBackgroundColor=#ffffff;verticalAlign=top;aspect=fixed;imageAspect=0;image=data:image/png,iVBORw0KGgoAAAANSUhEUgAAAOEAAADgCAMAAADCMfHtAAAAxlBMVEX////kbi52dHQxOUAuNj3kbCorNDtAR044QEgkLjbS1NYuNz5zcXH4+fnkayeipajl5ufExsh1en5gZmzy8vPa3N0dJzBSWV5JUFXNz9C0t7kYIy3++vf98u3jaCL87eWVmZxrcHXmeT720Lz65dr428zvq4jxt5rlczPohE+sr7L539GHi4+CgIDg4eLnf0jrlWn1zbjpi1nxuJ3qkmXtoHrsmnCQjo68v8GAhYiRlJj0w6nwro2hn5/xt5y0s7MBFyPiYxFyFqGTAAATpUlEQVR4nO1d55qqyhLVISgimHAMG8WEYlbMg7Pnzvu/1O2ASmgwEHT7nfXjfGcz0N2Lqq6urpaqROIfgTTbf++m012rMJOePZYoINS+p9ls9uMD/Gf6XXs/jlJuCtidkJ3m8s8eUciYWflhjuVnjylUlHcOgu9GUWq5CAKKuzdS1G8CQUDx+9njCg0zIkGAzLNHFhKEkQfDbE549tjCgcuOXozN7NljCwe1qYeSfnwUnj22UCD8eBLM/jx7cKFAyHkz/H6LiSiQ1wrM8C3cU1+G7yFDn3n4JsvF/t0tjd9qUXv22MKB9OW14r+N7133YvgTxjQUMoWffeG53pH0Qd5bfIQgQqmwg3GRj+n3UzkWyEIMwc7kW1mz7ey0HlAjZLmhKL3eeKwCjMc9RWk0ZPm2Z6URSYQhLBWSZa3NBvByGz21awz6W13Xh8N5p9OZz4dDXV9v+wOjO+7dQFNyr/rZ7+A6at+XZacP7DflRq87WOidpIjAWIEvidpc36y618Qp5exzMfsRhsNWtu/L7naRGuNlX9eSDCCW9Abkymid9bHrK0yhsMueh5PN7gpheKQ5p2bcYW1kRT0u5k1/cjaezeRwa4wb3k1KPzsYEoaGb/cTykIouCJ4t9ouWVlu5kALb2R3ZimKyeGx601SmBV+AArlkLxRyRWEvS221VCPQ615J7uzKMWObvirazjsIPJOd/Amho3BosPcqptkksn5tnvjMhIMbhnmrj0iq8dO817lJJAUxeFKiZ6kex5eWRFltd8JTs8k2dQH48gpOnae2am/ARsD6xISP8QxORwoETPM24Xou92Ux5tkWPI7cxS1qDkWbAT9NmO9QedB6+nPsakbkXIUfixuhM9hlrzSkxHwQxy1hRolxcR++oEPlj92ngRldRG2flopilo/UjHmgas0ne6+C54LbeOoiZHxQxybnWiXR2lWLue93Vx1G6EATYidfi9Kin6Qj53I+SWhnzNfPodgbxuFBSVy1AY+247I0NWjnYE2isw2dk2VDS0mAWKIejdegko/qjXQC0xnFcuW40RwHb0NdVFkYpyMqt6Mmx+kmNxE7Yyf0B3GZ2NsFMVFPBTVWFZBIsQ4TKpsdB6UoC1e+uBLEvVoXXEI404JMozYBBCTmgbj3cMhDnzDSCq6fidVcR61oqo3LoMorN1s/v5qw+1xsFoZxnLZ7arquNcbq2q3uzQMY/X32F8Mxd9fSPRWsTa30VLszq+rKBqs1pnri76hKv4Re1mWGz11tVkDwWrJm2gy6yjn4nJ+bQSMmOzMt0ej6xfAJkBWxl2jr8+166FkUY9Oij1fgnDGicPtYDluPOh9yIq67K87v1fOA5qbqJZ+4Mn4yI7R5ltjHDjQKTcUdbDuaL4kj9E4cMrGiyAYTGdjjEPstgFZJr1IMslBeF1ZcPSSXrOzXd057W6Aoh51rUkmyWhR7DSWpM6gcm5DlZ4VQJJDsrqKw/Bj4iRfjRFDVk43GupfXSNwFNdhG1SClWHEeV+NYc+mdLeaewkR+yF3s3F2Ac8z44osyOpm7uTIJMOdiktHB83kOtqIuwNy7zh0xL1EPcwX3NOtrQOPc+tzHB0NZMWYM7aZwmzCmyKydSWE5iWeU1onGsbaGh1iRCO0pg0rQW0b/RbNC3aOjBaWnjYu7ijzu14+Izh7hmIkL/Ox2Q9Hl+TjKe7EMPNVKE0GgdI/BxmYTjjh/u5prRe12NYHX6hnVQ1n3W+YSyEj6sunGBg3lEHHVCsmDJ0y/VGGOca5APpDBssXHlUyuFWQcWCG0Z90wuUBeYXjKSEYG6OJNHTzEjPQAhnHpZnAmwzkcTPa4EVmoBW9DdLUoPt9Q4ObsZhPtm6EvAIziJkHc0CUNcMwevS/wHoQBpiMAbdRxlOOX2+HqjcZJoiNl+di8/hUL+0alCEYYYDn1d9kiFuUSNBbBIoQb5jXliBEbxtgFzXu/H1xCUI01otHxSAPQtqdRIze9tHVTDFeXkUxxo+qaeMfIQhk8U/o2n/4D/8e3iKdgDfyo+LXG1OcTaqf3GfxjRnu/0dTFPvODAuf1H8M/3H8x/Dfx+szFARJEgJ8z3qdIezhli7AfZabZhkIyydqQhldcbYjocvW740ldMEckLRvTdqlUnEymtmeFDLO9m2Pm/3kYUs5DjJs1/D1jPMjcmE2mhRLFdSFR2O45/JoUiq1L8+VOJqmOcu3sPk0C678cX7UVUiBy2zKMtQ6uJFNo29MM1+lT45jAbjPdNv6vZRUga2xJRdF4Qv9oQL/IB3A//MUBk8jcEX77bl2+hP1ALpIFeuO1vYUaOEPZJ5vpdFILAxZ0KqdIVh4qT/OZAqFFLhM2xnSFJ/ew/arPEudwLOpluWuL56Hz+2dDPO44y8BMTzzO4O1McwcePZyC3ixObsy7ynwVyiVWZun0T2+DHkyQ3CZtzOEN9YTUivNnt49HgDdvmhABr4Zip84p1cBPsxjFQAMnQTtDEdV+Ap4ID8gHXgvTRVtqrqHYgFjxu8tLIZ7eIWuJw4ckCWbTlUr1TSLh8pVz/0LE9gBW3FqfRHPOgkzZGmeN2XE8zR4WbxFS4XcJ2yWTbUPLTDbq+hOrmR9ZwU46M+ahFoFMqbp0BiyozrokKWKo32mXKsfqvgdcheTiF4vRY8c7aFhfuKrQr0FUISP0pWvFsZlqtWhGvBUsQA/GJTyhQl6j1jBraP7LOzh2Fm2WqlUQ2NItys0xVXqJ5OaaXNY/c6JZCTUA1uyN1eDSwNPnSQrgDVgb64WgonTrZkKIniZ3EIujWyC5UN6NDqufmAplmvvy7PZRWUCMERXgA2jaJtR+EpjlTr3P0Ka88du4g+cy5p4rIf4DXE26zlC6tO+DKZWhfuSNhhLxaksgRmCi23bUiBNsKWY2BvkWtabZrBbPm0btgfDPZ6wdtZF9PjFQCOGYLKwFVeGhAAMcaugUcetswoyrdR5qGiCmUblNGyk4RXbqyEzFODTNo1E9/6xvcREpmqaOKcEw2DobhS9derz3CaiY33j5vLA23NukBkiK0m1nC4WvEpXz/eiuQquHFwEgzDE7812yWwTq8x5kuXbziWxDMVMV+19EBkKLQ7e6cqzh/Ti82xPyhU8FkIWj8AM7dYCAy+BF08th95v5WJr6ki923bBEBlKbdbW1AmQOPV5VgvM0KH2YTF0uogJuASie88vHvdPXTrBEnB4ckSGZbQMTBJO1Dm0JNp7YF3KHApDQjYwc1ZcGEw4m8wkCvmqzhlHYoilXdzXHZigRf887UyGhLcdmCGfJigG9g75S3+1P0hPT2qK13anVSAybFE+uMyQsvOdRswQTR6KtjSKFpDzkohWM5dVIDKcuH1yT4aWeRE5w6JzMchh2yNdhkO3nQ8SGZq7Dp4Ih5bGztAqQzwCvFfCc4tyJaAiMkTaQKXJ4FtPY9h2zEOwo0c+7EQ48add2ykfGbK5WZmI870PMPx03ny/pbE6MfhxvCSW4XPcwWXYiQzRmyH4Yg7cxxA51J9Ow+u1WlCEtIOYu82U5JFYkas9gk/9cXsf3rbU7rWTcBdDCQ2cc04TGJW5dT2sp+EfKjbu9fMWoY1cafdTRIZ7inDRjfsYYsv+5bgPvcwbfRrstdndOQlFpKp5oCM0WSpEhrMUedI6cBdDfMW5HuNwC4mhfeeG7kXBJycJFELhCokCdKVJY/H2Sx0bSQLuYpggho4IGwl8ieZdzY7gUC2Ov3l7GnmYAvTg2ANB7VBggy05/pJzePFhMESWgHa8NuQr2y2naWk4Z6AQ74CdgRm8L2dLGdAhWSYZxNC5PSjjV9sKk2ENKZnd59jjEBqftlgPkyGfsttyHMXgKRcJ+Ob46gHYZLZEyvtaRiEspzOHZA6a88/feB9DqY2jE5PziiWN0qbzlLao3ilyQLNWimZ0l2D+ZudoLdn65yuuICEavBnZGjkbtN53H0O8MED1Qz6DIGUOaZqvVlEowrI2nGRI8dzXqSSaVMMxWbbi7gxt17HHTEzdi9QYxiFxr+frI+SC0HzRWndNKtetia/vZHgKjdOVyWhfbx2qLGDRgtpCuxmmwazj2eqkXitfIsL8H9JEq5n7BNcUNYeSw7GW9CG3H+Uus1uaoCML0EkxV8jMZpnavp4rVijrjPVhKBEYJmrsSf84eFJAAylNJHj4xactbZieSw22QLMslUql8aECxaZbRA7mm+M85lQGmSiz1/9d5Cy1cLPgD6CTVIpiOY6l6bSlGT+GeH13OH65tG1bRlPAuqPArrXVk19aMwfO8ycZVT1yuePYsKfpF0aW8yWr6y/kUuY7h+c/p3vcexcPhjSBoTBKcWeONJdqSTBGSNOsdRd99rzLRY693M3yJa8KFDMKqZtn5njgVpwbsjmuQq1Icxb6gCgHRnVpp1xBp5s+DF3b//KhSuEjT6ryhQxoLVUFIDEEwilWaXguyXFUteidjL+MRejtggn1UhrOC451RST2k1KKR6droCMw+w8j63l0uQQH54xNI+Sxh+WeGVJmNCm228WvutmSZN+R2XdPUib3dWgXD1+jjI+T3MKxDL+D+Hy9NSkeJq2cK/GmkC/kWl8H8Mev1mjvqNkplDPlcqZM6ruM5z4xfT78XYDkPRzn/lDwuxmNHp2Spa9lefdr54FfQ9SwD/nITzy8d8Bk4PWQdcc+o0UdneOlH3n0XoaFKjr1i7kKJfb6PJbgK7iTIT698J+FEQB77tfjICTcx9A8CnbFECOG8IW2EdWHNOcuhjPkr/J83KX90G8AyPvR67iH4ayIvZ1irDoq5FvoBxF09bEXeztDAf8ew2NfGBHK+9Gkij0zdvTYi72VobQ/8CbBOKukllIU5sdz7Qc150aG+UMKe5RsOtaKaaf9NpuePGrdbmWI90RgU0w6+4oOB7SfZqnK40WrMmBnzNPXtRQtuTTbjrmQb+sT+OjpEuGnmjd/u5appMGmt3qV4f4TbsAes9f+8P12rQB/iUouOK+sbvvA1uOnti7kWao6qUWwTKi+3x/6OPDyKtzPnIVcfRbFMthbPJwRYdx5xWwRTjT0h78DTiQ2Yv/lvyPtLZgAaVf+ge/xx+tmkO/xYU6F15Zib8gEyqmA82K8bOIPlKSGYQKJQFkzSXH4vARt/pBXHSZwisiXzk8zSAbPT3PKMRRR4t5A6G1DyTGUWKI8Uc2Xm4wyTi0ePE9UQu6Yub7CS8MYBhoDPK4wEgue8rUlXyhfW6Jn1gkLaEgxzjn3mnPjRWajcq6jxYSiWeop9SWj9V9hNsrqmgk1byIwypbcl883qr2NJfdlSMuYNX9pU392/lJLXuiw8pfCHLSXxK9ichFHimsyGoYuRpGDNiFvbOl7O5vnpPlUjLU1dzkTjpnB6NkqkDFicr2MfenorSLMBZ1IdO2J38G/Iq6g6QDM581Emc87kei7crIDu3pL6fcwIHc3rkq8YedkTygLd1795ryvxmBYleWWUAebCTuvPrk2AgMrW4Tdkw1yd0CsjdCMoHyXZ30LPYLyHRiKevQoxxL2JMQ4kks9weL2i1Xo6ior3eNQ9KpR0okk7NDwrjMjJufbUEkCenrHs5YOk4wocbqy9i4KCIvpDBeD3qOFkM6Q5UYX1n3yKW7FRFUr6JZ6T7/a+u/D9Z5kVO9JF3+b/rW7xAgTVnaH12t2NbX54mh01d49SisrPXW52ujz5PX6tOGXmLHitrprIqy7NtQXm1V3LPvWXYMVrMbL42ahD3HdtautJ5lFtHmN76idh4rnNcXOenMcrIxlF5bOU8cAKiqetzRWx/5G11CNQPHmiohR1867v/4hXE0gfptNRtM68/kcFj9EtQ9R+cOXq3+YkJc3KKo32yAFLCHBWHKLq4+W6QyOWOqQQopPqyW7jSuCMvYpExghwWSMB31gLxV/TWcx1gLr8dflFjsxx6Njrq3OxFEI2InuOj6KjBZbSW4repvfmDgyyVin4AXyIJaVkWHmzzuDHm8C+Cc3Qpw/9VivEbUYmebwOYX6zpDV9fUd3eP8RK3/AjVgDD2qhYPRXuTnA73VPAo5Ms3165SfGPcJUemg/DpPWiI8MN7MwzSrTHI4iNmCSrPafl+ozTx/wiyPj94Bznv5MfoqZgMzq++mHxDT3Y/ntyCA47wZfM/BiEn9xp9fhwYp95HNfmBks9Nv75+sK8Z27hGIv5WeONzEXok3szvRM0nufH60Lo//6v617X3oMYy2XsZ1KHlBYWonCChOfb+PaqiboSbeqa4w9qjpx2jLmJORyToJAoofVz7rUdTBdpi8eVLCQLm+MaI6pPPHbOcmCBX12rdncqO3PK41FBH14Qnjxs3mfPu3G79yYgAjQ0TWM1mABbLcGBsLGK4XIRgb0KVkZz7sL4MfWAVAbUpm+HFNTy+QFbVrDPqbta4Ph3OI4XCorxeb48roPkcxrfgm6SgS4vd9DckNRVF6PXhmMe71euAfzxTcBYIXQWBPY/5SOSJkPBl+ZGP9SjIy/PgwjPczyaiQ82H4E3PGgGjgaWigqXl7hu8hQ795+B4MCz4M4077EA3y3gw/YsyKECVcO6ezCHcvXI7pHuw9hfjz7KGFhDxx8wRF+B5OG0DBQ4TvYWcgBOKC8SZLBYbQIkQx3sXMYOS/HZGabPb7rQgCKRamHxeO2Y/p/o1U1MTsZ5dFggT/3f3EnGctHgj52s9uOp22RrX8vybA/wOJCv7yVfwaPwAAAABJRU5ErkJggg==;" vertex="1" parent="1">
          <mxGeometry x="200" y="130" width="40.18" height="40" as="geometry" />
        </mxCell>
        <mxCell id="3H0-s9RyXJ1IOqhGOWBs-7" value="Host Jupyter_Work Directory" style="rounded=1;whiteSpace=wrap;html=1;" vertex="1" parent="1">
          <mxGeometry x="330" y="209" width="120" height="60" as="geometry" />
        </mxCell>
        <mxCell id="3H0-s9RyXJ1IOqhGOWBs-8" value="Access" style="endArrow=classic;html=1;exitX=1;exitY=0.5;exitDx=0;exitDy=0;entryX=0;entryY=0.5;entryDx=0;entryDy=0;" edge="1" parent="1" source="3H0-s9RyXJ1IOqhGOWBs-4" target="3H0-s9RyXJ1IOqhGOWBs-7">
          <mxGeometry width="50" height="50" relative="1" as="geometry">
            <mxPoint x="320" y="145" as="sourcePoint" />
            <mxPoint x="370" y="100" as="targetPoint" />
          </mxGeometry>
        </mxCell>
        <mxCell id="3H0-s9RyXJ1IOqhGOWBs-9" value="Container" style="rounded=1;whiteSpace=wrap;html=1;align=right;fillColor=#3399FF;strokeColor=#1A1A1A;strokeWidth=3;" vertex="1" parent="1">
          <mxGeometry x="480" y="120" width="120" height="60" as="geometry" />
        </mxCell>
        <mxCell id="3H0-s9RyXJ1IOqhGOWBs-10" value="" style="shape=image;verticalLabelPosition=bottom;labelBackgroundColor=#ffffff;verticalAlign=top;aspect=fixed;imageAspect=0;image=data:image/png,iVBORw0KGgoAAAANSUhEUgAAANUAAADtCAMAAAAft8BxAAAAwFBMVEX///8xYZIAAAAxYZEqXY8UU4oaVYsmW44eV4xBQUFSdp8qXZAiWY3W1tbz8/Pq6upgYGArKyt0kbG3t7eurq7y8vLg5u2goKDh4eHp7vOTk5P5+fmmpqZ/f3/Dw8OLi4vNzc2FnblFb5tVVVUfHx+/v7/S2+UVFRV2dnY1NTWDg4Nubm4bGxtcXFzEz9y5xtZOTk6ktcqNo75jg6ipus28ydiYrMQ8PDwoKCh7lbRnZ2dlhqqIoLsATIZLc50ARoOJatwWAAAV6ElEQVR4nO1dCXeqSrMFGRVQ46w4a9QkJ5qo8UST+P3/f/WoqgaaQTKcQG7eYq97rkZQelPdNXV1Iwg5cuTIkSNHjhw5cuTIkSNHjhw5cuTIkSNHjhw5cnwSTeu6Pxqsqvenu9Wof201f7pBn4PdrHSsTrPsf9K8Hj0UIni+63d+rpUurHpvdX/zPJ8/38xWt+26ZUdOqdRHD0uv2Vf3o3pHGI9uooxcLAfj7Il46LRjbnZhOeuNfZE02wnNTyDWLidcOEXU/ya06up2DELrnJIbP5854h1aVseyrHGjN+Dv0igq9dTRCN/cZSGMWeOO+6tYvVsNVqd7T3T37XFMuzv1gfeVdsacrGf3yjeD/rjCeku5Yg3bq2KUXn/M96eyVR/djpN+/ZZ98dlKkUMEbXbV03Vs7+80Vh7rQvH6vZ5k2+Vy2Q6eVWc/0PuuJr8P1rF6SQO60rh/v1mtzaFWkgxdURTdlEq1w7rrHaszOWc1umZ4uVv/ct3FerPZb54WrQBPuz6rula1u37c1movteN2/9TyzmgeFNWQRVESHciyYeqKOFm7R0d4nT/ZGGaU1NLt8YvDTldUVXegwi0vHfeL8O1dbCVF1U3NMAzN1FVVLR0W7JB9UF1WBFlTjQOTmDVHXllY5R7qCGp49yAppizykDXdobZd+8w25/A5omyq4oQRa+1U+tCnZipHxquaES0LLvOX3h90PdRcv9Xm7okafVbjz9GUM50h7JXIGZp6oGOkDVPvhNApliiIlqTHNpdgSHi7D9EW+9yVKY2hlqRJ4YP6lIYfqtvnlEn1vB7xlNBeByaSelESTpEcXjs8zS6Z4UOirO79K96nSsr2lPVTUntFUUEphBvLt5pgsLYf1Yi0ROUVD6Gv0UiTFfYHeLNIJqVv4aRdPCkp8KLU8JcnavRElQ7N3IumBXD2+vBGSux+xhTOeY1paJScaJ67REtin0reYfUIR7CDDNMjZbl3bXupa7H7D1p7fUmckkdIwn+yhorhqAdPgv9UlDkMrUF6rFbgUziv3eT+Z7w459hGojgD0JHWThMDBhn+UjbOgY5z2Xl6rEBU4FRMtMRGKtDISbI4gzDhG/ZUDrNyjtjsuqmRgnu2hMsnN9jYOee0ksXpDyCiocHYCnQBRk8HYYGjXEmLFUSKK+d1k6wGcFTVksUZbDroF5DJRokc1EAPguodp8UKhlXdeX0xkloqgwJMGnlRy+R8ZIKA4+4F/Fo9TSVYZH5FIilRf3ROOXxmVCFU+JodZAX8NYF073VarNigfWfIKDBE5GQFKHk2yRcc6hjs3IGPVZsGdFqsms5vX8GVk7xaUS4J77oe8V9E010KdwTViUQrKfZAuGNV4b3ehR3wHdXvQeLlgn1woUicahRJ9JUUtYXFbHCyelNBA4ofs8C+l4FvsO/6qoiOubJKK3QcshTdObHJuvABY8XR4jSiCW5fK+S9a2xcpWWv6iwiSBQEekv7xJHn+a8BQaE3CwpjZ7j9ko4L1EtSIoWswFwldkATBsdLojSl2LcADYS14IUlyWfno+uUWYF+TRSEDuFicpzCkZEkTzfgOxVGltsX8AjKvl8oPKTNKlEFwoh/x6UPUnMZyppmmgokYQI61oRY5JY8tVRw/RFWhgB9iN6aqqooajhtFiXmtF3VSsfX7fYIXl/A2JmQAaiyWDUNDNm4SmQFphTMtKmItcf1orVYH0qxuTMuctTkbYu/kMgJEg3FPEXn1vqAtsBhcNBV+XXhf9FLZHo8Ar1PnYSSvVMuRgFzVU4zJVhhSYtpgi5ALVaTNqGvHhJiFyV8MiobxluWBLydy7RIYVZkJCQHIji4fTGVu2w+YcspTtf0MklR6qy139ZeXo5b+O5U9IwZhlcN8tRSwlWhcOe8vCZ0QTRXhNbji2SqukQ5c07Age6HzrCwmP7vTVcUQ3sDwXGGQQfOq1SnHR1VdOO87BPUhb5n527Oii4bqiGqyhtmnC70QbRvm7fz2hHq2pRAOdiGTx29jSvKlqSEHpn4RcIg0WmQPJqg9+QSiGmxU0AbXLDMYAm6ikEX0IPmTqKYsZlukrNOTmaSkVVhnmPB5hXc7jgF2xoITjxDJUNgv9dNHIpHTYQbwN01GVSqY1FmKbLqsDDnMimSleiqE4lU9hR8OS7W9E2VpEEu3QltzENrsYMznD+fdMn1d9EGj1K0wQAWiuwuK0EcV1Ove0Gy2a6ZkNRrxdosE8S4k8Fq64YkYdLt0fSoY8Q1T3lerkj+WEI+GjtdyRtChrl70TTKpcV+ibFypadNBOyILsBTqaRprQC3NEGWkLigVnKyxLw0SvDsueJcCEw0ZDfUZzeF9T8JrV8/1SS7QP5tpDMFQOMk3ENN+PQYZ+bQXO29LmfisPSAMp6l6AQiKu+qC/SYIu0n75Drgn5cKAu80kPr5alYdJfKKU9eCTh/lawukFUkwyS7nnwEEuiDsuoZXTDCissaO2CdHJo0cXovdxYvK0zRxBtvNAU7V724rPy/YOYgxRk5RLtQ+CNcdn+iSoxBKV9KPKH7ujeZM4s8FFdyIGE7/Q6IIZbjXZQvehfIKpowhGxz2CVxYw2BO6TCuHpjR1Gf1lMM7l3YLHC8GGK5vkIMKzv+VqB43KQU9kf3t9EEF1P1bBlmZDwuBiMRe8UauIhjhZYLu+AT69K+EZfIRaykOnfqok3ByNOlgYVZ9mhyN54V84ogsGTZMtR6zNxhb+xlUiJokR2+6LZjF4r2zzhWXmUC3Ajy/UQZBEcOmQyOLpiS1KZOObA5l0sDC29w9FictnCBtpZNNZOrgYYN+3LKQYiHe5oXuTSwIHaN0ZCXNbvIYjJmAiFKfEKjjGnc1L0lhgY5uBcD9m5s86GxsVYYfFgUUFnHvxT3ROyLlfTLzQgVZrEuuO2GHdd8rmN5ZPi5U+i2JCyF3RUJ51NvU44XfczJYpViBxaOkajDh7b58vwjkrY9Vl2FqXWbVFMWGJC3+RjrChKriKxQh/j6nkveSv7xR130Jx8wBunRGM4Cw6SJfFTH0TGnl5NzODTRDVkoxsrALGGaFTEh2KyWKT4TptsxE/iYjdiES8oCwgQzBzJmrHCkNdKPQXxUydy/xnZB0Ox2WFaouj3nUIpwctQgmlzHCFLmDG9D6lmYAOpUdZEQLoU0iQx6/ZLSdL8HDsZaYT0YR1W62fUwyqy7x6o0jBofgwzQS0hKY+MXQdmVTLBSBxUSAuAsZbn45YGsSHx2BW52yLlQYO4p6GLx9QgsMYiTKf/DyBhtVT9TUeH1oEw/3r1AJR0YcxhqJJSrul8ED+kM/vv/wLoJGS2l8MDci/hME+rkQHUqDpJQyBVTTIfCAmabN6DWzlIBIh4o0xTvLIQridEWfaRYRmduxBkURzNDW8XQoNAxvrCMLOqjdwy1W1wOO1Jhix1PWJjw/zua1swSZdbn44MsqtB/dBdcKHxhSCJQSQhTkLWVnQfogxnix3gbRKsp1gYeRc/1oq7wKvLhFZ1IAb/8N+U1FLFgvmD3QpBFtOyDqWoyThzEGoEosOYM4HTxonst22rcnlap1afyYHH+hUpB+Y2KQuynScmAtw67i6Ji0/lowRSaVQZVUbzt9XqjO29ReBaBfo8uc6EQVTkEz27VXowL68+Cd0ORsJBhVohBBqkm12TFxo46rjAKDfYnKbEXYjW0xAo1+u6S45tTb1ix7c5DIe2ZOUKVNG+cGtBrxLsaSvqX3hlcRom7ERUH3ILW52x04phdJqrcqdy+jOPhrj/0HVSbqXd+QQ//SqvrwjIm9DKYQwA8k38RieZp6RUUfhCAlf2KJQqc4xgoZ2eTVTAY7YNk7oMXQomNOKWYJhrs7oWEJYvYCm/vA+iF9lRXp9y50bAR7BVWwZQcpaJrx/2i1e22Fuv9trTD3ytktdUAu1BoZNFKKm//B2wKLATUQRIRv4knx9VWa6aqQMGkrrxRHQosvM5mv4s+G1kvvBIg++tueTBH27nFpCUI6ykhHg5NsuLUt7sYelTIzit0181xFahkRWlHheKIFAWtPsJGX56iFCU8wfOJDdPptO7C9buM9DqiwXzcpze3aSp63dcOo563IQdbgYt8E2UFVUGt41k2FU081w5P7u4JHVQ846xYCTdMMR3YHdYx3dApVLnAaEvHaDHppeoTUBZYhxUDXASdVV4aYLl+zCs2XUdD1eQKWVoHg/QDW/gbSgn6K2hFlrQOo9nLzFvyced2jb2q6m/UrBtmLVv7mqSwSak35hcmLXHiikAZKvUq0zoZSkpgy5MxZWI/bWgczGg/hVfljfnphqaU3DpcNiuClleSPE8d3kuYSLxujDuVSqczbrT9jXTmWe86NfZoMVRdz2Y9ORtYoj+d+LXF3lyPxC9Sonc4lR/jqi+zFRQClbgX0ZXRpXDHld1ttbquKqyAXoks9eGsMIT3lQil1ThrRghYllqY4bXL7s4/MbMzDZwzTFrABNMmjvp5/uMSur+tZ5xk4sCco4cT7h61opFQD54D2xBBUurRH1ecmFgFuICWrifY5Wal+QPbZgXR43rMWHA3vjr1LbzTzU6dmHKsopDICPezVncJsNyoYwYOqHUfM+QLNI2SMK7QCI/SLy/7BMaDh6vZyNWF5Ub1T4DQn0ab6nY4zR4GGuG7bGdBPo3muL+i9FBxNPYK8DZ6REYu0AgXM89C/xP65HTHV3PiPx2mIws/kLD9B/TJOF/02WnxWDPDgOM7wNIBFF/FDSsJSoI6GSUnvgt1nlVkaIHLBMtfho5B+OmWfgZ1GjEJsTBEwv2MQ45/xZBY0bS/JHGbCkjcquDbn5gI+QeAb9+MS8t7GU6Y86pmGch/A1hp9eV5VJwPuvld5goXbnX4UqbI4loWXf0mc4WBkxWowwhslyBKKm3N8eenG/oplNGfT9jHCWa4x2lvqPftKFCpZFhTeDsLgGJvZD9t/4+YR1aFBzwMAzJrv02xozcOctgZsaTIY8+qHvr7UKX6nYkWQ0pi9TSFX6bYsXdBnjAQNnKrG92dpH66mZ8EC0XQuYj47BL6S42Mlhl8I4Zkhi9sOYPVdw+/zLcVqHvxlZLcxIFEer1Z+HXKAlUB5M5arAtK9I/cd4UtSfptw4qmvyF/dIy6Fwr463Z8zvc/DncbVFvkVnijW0HlQYPfp9cFtqcseOStwEbNmnLGKRNYNJ76oswUMHfb3Zqq5GHIpqrWaHtsj/NvA274T1n0zU5XFd30N3EHSf2XctGfQNGn5cSPXf8BB02cVsn6KRvfhCbNlYT7WYWebvCfmQv5LCyaS+jz9XL1mTtF9GvBaBWq/bHVsYZ976Ejq9+oKDyUY0tPb3+fnQphGH7cTTWT4ufU4T9d6urU/k/PwX0WdqVTyabcL0eOHDly5MiRI0eOHDly/P/A4vFYmk6laWmy70YO1c6SLDqHNlys2VoshP849pICzxt1oMIDRfmd9fdT+AwP6bpa8w45H/9AQz+DmiKrJXieQGuxmRi6t1wGt6TW1OnhCQ7ta6ausccd4q64P9TaD+JRFSWuOx10b3/9jSIrL77k7EdT1tmy4pLxeVazG8KVg7+n+vtf+BeYshp4msNGlQ1s+pNDKvj8gO5ZM3EHKlhW/ukL/S0sXWD9dprZ1YWqHYOfvMi47VRLoWK0AEoGba3wFVkVuXx+pZ1ume/e1EMPdFjryLNkRJ/0ALOVWHTyFVkVA1MvYyqueh+nryweOJj6OvhJ900v4aZTcYsdnY+hD35FWwRZOa392N5I919hFZWVPdkeYMdipRV3/s6Az7+BVeOD+7N+idVaNWoxH5dVen5F9Hwd1ux/A6vhB4shvsTKVqg6JgSn8ZEVnHS+Dps+fQOra5dVZ1i/HnMK0baG9frYm6vhWMGZVkB1wrm08KcyHo655ZCvuqRsw36SM9yiCpBwls1vYdUjJdhn82gz1vaOu/b1BuoVx8urP8urqznUzLXnbHJKEKAopjkv0hpI0Kx9tmBr4N2MnSqbynSyCQyjo6bGDivYrkbtflGzB1hdQeWUDQVUQ2tcv2OT051C4W7YaTatNhY1WqfVTeG0uusJdtFp87VlXQ8cSwdLGpuFv9eF5aA9GgvlYuGq0WlWhvfcxOleVEx4qLy4O6xdD9YxWhH5ESbA92uy4uefT1hk/+Apws4zFpPeedQrbIHtiV6KhSJ7BlJlfg/L5BxWV2zbsr9eZU+DX5W7OJRMVddMU1WmB3owr6xfsP3YN7/GanVdJzQGS7yrDfeB8QJKyYbKEO+yt1QGV8VxdV2YewcqhSWyWrIvt7lC6H7wuWp2azM566ojNOWli6wuyMph1fpaD3T3QULcwz294WfaByCsub+Vxviu4bO658uCRyQr14zP+VXTxehmevbi8azImtkSasblHqh8tQfeNRjqQ+xNzUAN/RAWFZ0i5RPEask/g8tirEg1dLCgzkU/vs6iNTWMqbC9qAN3smp/0WMKX28cqKHH1kEt46zX8BU7sSoHlrw1iRW7JcNCtWN56F8oySprotJ60sMb47iQoU7y3/1Aag+/S2ETnY1mj83JP/TLPqtmYPNnm1hd0V/10Bz+DJ6TtY/IZGuaj10FNyiOoqWA7/sNml0AWfGuYMVreWfYvrthNY3Eyg44IhVixTresLBqVng4PsSbEtnbwnHaJ8L0gmrfmlD9+T2y6nAqEEZLUH3dEUsaV8+8EhgCq7LLyoq6ya0Ymawh5NrrsVt5wJOVhW/xLQCBYsu2Y3Y7Db/6zV4iE2K14r9cDbAKyrENeyLYuhgxTM6Y2sKyEiVGXxxNfBTdN7Ea8ItTrpzmD3np3SAfYmVxN+Aa7ZXHymHsa32mGXdGxI2daBCcwK6+kScabhQN1uzD45W/g1WF83BW0JFszjeoUC3miU4ZFJbsVEfLkayu/BM9B7hKe2GsFdEMenxlFbdeFl5VQwoNrb3Ctuf6nnFFGzXgrbNmhSu4aK/wh/VBq0iCHBVmjouHKyiuBr3eaumo7iArCGqomK5z7+YNdqZo8KFI9yyrlDs7qrLKq/duTRWJ1Jd04E3cQoCx43DcPBT94kWoWHyonh7mbtk27iYC+qAzAMd8fufIhVj5JsyCHY9O1Ru/ftguqaJaYh57eTExZdUN7Q+KoUuHBV6uvK6pmiFqW2Ili8daEC/vZXPHw9g9aOqDh5viqe0dazZu7x+Ks0HDHUf2db/n6hBiTkNqOOZ+ZXj7cHVTbXPK5+A4tqqia5JoKqqpc5tFtnaKriuqOBV1VQUP0ZBpi6SzqekhvMXEnt+HisXdEutDi1rs/YusUOpZKz0GxtJiO9XpiDndtoSupJlT54TtccLhFTC5EI99D4Z8oq334UUtsLfeYhFneMut9Xq9aJHw7ZKuxuU5Ugen5zoprCk4xmdp0kbbU471ZRrlzz9Upws5iuL9PajLlHP0mcKuj6oPD6fR71xRkCNHjhw5cuTIkSNHjhw5cuTIkSNHjl+G/wPv75bnkyuZzQAAAABJRU5ErkJggg==;" vertex="1" parent="1">
          <mxGeometry x="490" y="125" width="44.94" height="50" as="geometry" />
        </mxCell>
        <mxCell id="3H0-s9RyXJ1IOqhGOWBs-11" value="Access" style="endArrow=classic;html=1;exitX=0;exitY=0.5;exitDx=0;exitDy=0;entryX=0.5;entryY=1;entryDx=0;entryDy=0;" edge="1" parent="1" source="3H0-s9RyXJ1IOqhGOWBs-9" target="3H0-s9RyXJ1IOqhGOWBs-1">
          <mxGeometry width="50" height="50" relative="1" as="geometry">
            <mxPoint x="320" y="145" as="sourcePoint" />
            <mxPoint x="370" y="100" as="targetPoint" />
          </mxGeometry>
        </mxCell>
        <mxCell id="3H0-s9RyXJ1IOqhGOWBs-14" value="" style="edgeStyle=orthogonalEdgeStyle;rounded=0;orthogonalLoop=1;jettySize=auto;html=1;" edge="1" parent="1" source="3H0-s9RyXJ1IOqhGOWBs-12" target="3H0-s9RyXJ1IOqhGOWBs-7">
          <mxGeometry relative="1" as="geometry" />
        </mxCell>
        <mxCell id="3H0-s9RyXJ1IOqhGOWBs-12" value="&lt;b&gt;HOST&lt;/b&gt;" style="shape=image;html=1;verticalAlign=top;verticalLabelPosition=bottom;labelBackgroundColor=#ffffff;imageAspect=0;aspect=fixed;image=https://cdn3.iconfinder.com/data/icons/superpack/Icons/128x128/Macbook.png;align=center;" vertex="1" parent="1">
          <mxGeometry x="350" y="310" width="80" height="80" as="geometry" />
        </mxCell>
        <mxCell id="3H0-s9RyXJ1IOqhGOWBs-13" value="Access" style="endArrow=classic;html=1;entryX=0.5;entryY=1;entryDx=0;entryDy=0;" edge="1" parent="1" source="3H0-s9RyXJ1IOqhGOWBs-12" target="3H0-s9RyXJ1IOqhGOWBs-7">
          <mxGeometry width="50" height="50" relative="1" as="geometry">
            <mxPoint x="320" y="160" as="sourcePoint" />
            <mxPoint x="340" y="230" as="targetPoint" />
          </mxGeometry>
        </mxCell>
        <mxCell id="3H0-s9RyXJ1IOqhGOWBs-16" value="" style="aspect=fixed;html=1;points=[];align=center;image;fontSize=12;image=img/lib/mscae/Docker.svg;strokeColor=#1A1A1A;strokeWidth=3;fillColor=#3399FF;" vertex="1" parent="1">
          <mxGeometry x="170" y="30" width="50" height="41" as="geometry" />
        </mxCell>
      </root>
    </mxGraphModel>
  </diagram>
</mxfile>
